<svg width="256" height="256" viewBox="0 0 256 256" fill="none" xmlns="http://www.w3.org/2000/svg">
<g>
<path d="M232.919 49.4561L206.552 197.112C205.966 200.042 204.648 202.569 202.597 204.693C200.546 206.817 198.056 208.172 195.126 208.758C192.124 209.271 189.267 208.941 186.557 207.769C183.92 206.597 181.833 204.766 180.295 202.276L128 116.363L75.5952 202.276C74.3501 204.4 72.6289 206.048 70.4316 207.22C68.3076 208.392 66.0005 208.978 63.5103 208.978C60.0679 208.978 57.0283 207.879 54.3916 205.682C51.7549 203.484 50.1436 200.628 49.5576 197.112L22.9707 49.4561H51.9746L70.8711 153.497L115.915 81.646C117.16 79.522 118.845 77.874 120.969 76.7021C123.166 75.5303 125.51 74.9443 128 74.9443C130.49 74.9443 132.797 75.5303 134.921 76.7021C137.045 77.874 138.803 79.522 140.195 81.646L185.019 153.497L203.916 49.4561H232.919Z" fill="#222222"/>
</g>
</svg>
