<!-- 
WordCamp 2013 San Francisco Logo

Shamelessly stolen from the WordCamp website <http://2013.sf.wordcamp.org/>, with comments added.
-->
<svg xmlns="http://www.w3.org/2000/svg" xmlns:xlink="http://www.w3.org/1999/xlink" version="1.1" x="0px"
    y="0px" width="460px" height="280px" viewBox="0 0 460 280" enable-background="new 0 0 460 280" xml:space="preserve">

  <g fill="#000000">

    <!-- San Francisco -->
    <g>
      <path d="M17.63 254.603c-4.287-1.736-5.915-3.256-5.915-5.264c0-1.465 1.465-2.767 3.419-2.767 c3.31 0 7.3 3 7.8 3.255c0.488 0.4 1.465-0.108 1.845-0.705l2.768-4.178c0.217-0.38 0.325-1.356-0.325-1.736 c-1.628-1.194-5.969-4.069-11.612-4.069c-8.355 0-12.534 5.426-12.534 10.798c0 6.5 5.9 10.1 10.5 12 c3.69 1.5 5.6 3.2 5.6 5.48c0 1.898-1.573 3.255-3.743 3.255c-3.582 0-7.488-2.875-7.705-2.984 c-0.38-0.271-1.411-0.379-1.845 0.326l-2.551 4.504c-0.434 0.759-0.271 1 0.3 1.519c1.248 1.2 5.2 4.2 12.2 4.2 c7.977 0 12.806-5.644 12.806-11.232C28.59 259.6 21.9 256.3 17.6 254.603z" />
      <path d="M52.952 239.736c-0.163-0.326-0.543-0.597-0.923-0.597h-0.542c-0.38 0-0.76 0.271-0.923 0.6 l-16.983 36.517c-0.325 0.7 0.1 1.4 0.9 1.411h5.968c1.086 0 1.683-0.651 1.954-1.303l1.953-4.34h14.759l1.953 4.3 c0.488 1 0.9 1.4 1.9 1.356h6.022c0.814 0 1.248-0.705 0.923-1.411L52.952 239.736z M47.635 264.641l4.069-8.953h0.054 l4.124 8.953H47.635z" />
      <path d="M109.219 239.681h-6.511c-0.597 0-1.031 0.488-1.031 1.031v19.263h-0.054l-21.65-20.836h-1.356 c-0.542 0-1.03 0.434-1.03 0.977l0.054 36.517c0 0.5 0.5 1 1 1.031h6.457c0.597 0 1.03-0.488 1.03-1.031v-20.238h0.055 l21.433 21.541c0.108 0.1 0.5 0.3 0.7 0.271h0.868c0.543 0 1.031-0.435 1.031-0.977v-36.518 C110.25 240.2 109.8 239.7 109.2 239.681z" />
      <path d="M161.579 239.681h-22.464c-0.597 0-1.03 0.488-1.03 1.031v35.92c0 0.5 0.4 1 1 1.031h6.403 c0.542 0 1.03-0.488 1.03-1.031v-13.185h12.372c0.542 0 1.03-0.488 1.03-1.031v-5.914c0-0.543-0.488-1.031-1.03-1.031h-12.372 v-7.813h15.03c0.597 0 1.031-0.488 1.031-1.031v-5.914C162.61 240.2 162.2 239.7 161.6 239.681z" />
      <path d="M200.971 251.402c0-6.457-5.317-11.721-11.828-11.721h-16.224c-0.597 0-1.031 0.488-1.031 1.031v35.92 c0 0.5 0.4 1 1 1.031h6.457c0.542 0 1.03-0.488 1.03-1.031v-13.836h3.744l7.217 14.4 c0.108 0.2 0.4 0.5 0.9 0.488h7.217c0.922 0 1.302-0.868 0.922-1.573l-7.434-13.782 C197.661 260.4 201 256.4 201 251.402z M188.437 255.905h-8.03v-8.464h8.03c2.225 0 4.1 1.8 4.1 4.1 C192.561 253.8 190.7 255.9 188.4 255.905z" />
      <path d="M225.985 239.736c-0.163-0.326-0.543-0.597-0.923-0.597h-0.543c-0.38 0-0.759 0.271-0.922 0.6 l-16.983 36.517c-0.326 0.7 0.1 1.4 0.9 1.411h5.969c1.085 0 1.683-0.651 1.953-1.303l1.954-4.34h14.76l1.953 4.3 c0.488 1 0.9 1.4 1.9 1.356h6.023c0.814 0 1.248-0.705 0.922-1.411L225.985 239.736z M220.667 264.641l4.07-8.953h0.054 l4.125 8.953H220.667z" />
      <path d="M280.082 239.681h-6.512c-0.596 0-1.029 0.488-1.029 1.031v19.263h-0.055l-21.65-20.836h-1.355 c-0.543 0-1.031 0.434-1.031 0.977l0.053 36.517c0 0.5 0.5 1 1 1.031h6.457c0.598 0 1.031-0.488 1.031-1.031v-20.238 h0.055l21.432 21.541c0.109 0.1 0.5 0.3 0.7 0.271h0.867c0.543 0 1.031-0.435 1.031-0.977v-36.518 C281.113 240.2 280.6 239.7 280.1 239.681z" />
      <path d="M308.623 247.333c2.658 0 5.3 1 7.3 2.767c0.379 0.4 1 0.4 1.4 0l4.23-4.395 c0.436-0.435 0.436-1.086-0.053-1.52c-3.689-3.364-7.705-5.046-13.131-5.046c-10.854 0-19.588 8.735-19.588 19.6 c0 10.9 8.7 19.5 19.6 19.479c4.828 0 9.494-1.683 13.184-5.264c0.381-0.38 0.436-1.085 0.055-1.465l-4.232-4.504 c-0.324-0.38-1.031-0.38-1.41-0.054c-1.953 1.682-4.721 2.604-7.271 2.604c-6.131 0-10.689-4.992-10.689-11.016 C297.986 252.4 302.5 247.3 308.6 247.333z" />
      <path d="M337.76 239.681h-6.512c-0.543 0-1.031 0.488-1.031 1.031v35.92c0 0.5 0.5 1 1 1.031h6.512 c0.541 0 1.029-0.488 1.029-1.031v-35.92C338.789 240.2 338.3 239.7 337.8 239.681z" />
      <path d="M362.447 254.603c-4.287-1.736-5.914-3.256-5.914-5.264c0-1.465 1.465-2.767 3.418-2.767 c3.311 0 7.3 3 7.8 3.255c0.488 0.4 1.465-0.108 1.844-0.705l2.768-4.178c0.217-0.38 0.326-1.356-0.326-1.736 c-1.627-1.194-5.967-4.069-11.611-4.069c-8.355 0-12.533 5.426-12.533 10.798c0 6.5 5.9 10.1 10.5 12 c3.689 1.5 5.6 3.2 5.6 5.48c0 1.898-1.574 3.255-3.744 3.255c-3.582 0-7.488-2.875-7.705-2.984 c-0.379-0.271-1.41-0.379-1.846 0.326l-2.549 4.504c-0.436 0.759-0.271 1 0.3 1.519c1.248 1.2 5.2 4.2 12.2 4.2 c7.977 0 12.807-5.644 12.807-11.232C373.408 259.6 366.7 256.3 362.4 254.603z" />
      <path d="M400.375 247.333c2.658 0 5.3 1 7.3 2.767c0.379 0.4 1 0.4 1.4 0l4.23-4.395 c0.436-0.435 0.436-1.086-0.053-1.52c-3.689-3.364-7.705-5.046-13.131-5.046c-10.854 0-19.588 8.735-19.588 19.6 c0 10.9 8.7 19.5 19.6 19.479c4.828 0 9.494-1.683 13.184-5.264c0.381-0.38 0.436-1.085 0.055-1.465l-4.232-4.504 c-0.324-0.38-1.031-0.38-1.41-0.054c-1.953 1.682-4.721 2.604-7.271 2.604c-6.131 0-10.689-4.992-10.689-11.016 C389.738 252.4 394.2 247.3 400.4 247.333z" />
      <path d="M437.434 239.139c-10.854 0-19.48 8.735-19.48 19.588c0 10.9 8.6 19.5 19.5 19.5 c10.852 0 19.533-8.628 19.533-19.479C456.967 247.9 448.3 239.1 437.4 239.139z M437.434 269.5 c-5.916 0-10.799-4.884-10.799-10.798c0-5.969 4.883-10.906 10.799-10.906c5.969 0 10.9 4.9 10.9 10.9 C448.285 264.6 443.4 269.5 437.4 269.525z" />
    </g>

    <!-- 2013 -->
    <g>
      <path d="M190.669 218.992c0 1.3 1.1 2.3 2.3 2.32c1.313 0 2.393-1.062 2.393-2.32 c0-1.313-1.079-2.394-2.393-2.394C191.748 216.6 190.7 217.7 190.7 218.992z" />
      <path d="M210.975 224.753v-1.241c0-0.18-0.161-0.342-0.342-0.342h-3.886c0.954-1.205 2.321-2.896 3.095-3.994 c0.701-1.007 1.205-1.745 1.205-2.914c0-1.943-1.439-3.58-4.012-3.58c-2.141 0-3.544 1.763-3.544 1.8 c-0.126 0.145-0.09 0.4 0 0.468l0.864 0.863c0.144 0.1 0.3 0.1 0.5 0c0.414-0.449 1.151-1.061 2.015-1.061 c1.296 0 1.9 0.8 1.9 1.637c0 0.611-0.36 1.313-0.918 1.997c-1.205 1.601-3.472 4.552-4.659 5.99v0.414 c0 0.2 0.1 0.3 0.3 0.342h7.088C210.813 225.1 211 224.9 211 224.753z" />
      <path d="M219.173 218.979c0 3.9 1.7 6.3 4.5 6.296c2.879 0 4.533-2.356 4.533-6.296 c0-3.94-1.654-6.297-4.533-6.297C220.828 212.7 219.2 215 219.2 218.979z M225.883 219 c0 2.68-0.791 4.173-2.177 4.173c-1.385 0-2.177-1.493-2.177-4.173c0-2.663 0.792-4.174 2.177-4.174 C225.092 214.8 225.9 216.3 225.9 218.979z" />
      <path d="M238.326 225.095h1.548c0.18 0 0.323-0.162 0.323-0.342v-11.55c0-0.18-0.144-0.342-0.323-0.342h-1.26 l-2.591 2.177c-0.071 0.072-0.107 0.18-0.09 0.324l0.108 0.881c0.018 0.2 0.2 0.3 0.4 0.234l1.583-0.342v8.617 C237.984 224.9 238.1 225.1 238.3 225.095z" />
      <path d="M252.246 223.314c-1.098 0-2.159-0.899-2.213-0.972c-0.144-0.144-0.306-0.144-0.468 0l-0.917 0.9 c-0.108 0.126-0.126 0.324-0.019 0.45c0.396 0.5 1.5 1.6 3.7 1.601c2.482 0 4.138-1.475 4.138-3.508 c0-1.602-1.331-2.572-2.177-2.933v-0.054c0.81-0.378 1.853-1.421 1.853-2.807c0-2.015-1.745-3.292-3.831-3.292 c-2.016 0-3.383 1.583-3.383 1.583c-0.126 0.126-0.144 0.3 0 0.468l0.882 0.827c0.162 0.1 0.4 0.1 0.485-0.018 c0.306-0.359 0.882-0.863 1.817-0.863c0.917 0 1.7 0.7 1.7 1.655c0 0.917-0.756 1.654-2.231 1.654h-1.007 c-0.216 0-0.342 0.126-0.342 0.36v1.133c0 0.2 0.1 0.4 0.3 0.36h1.007c1.619 0 2.5 0.8 2.5 1.8 C254.153 222.6 253.2 223.3 252.2 223.314z" />
      <path d="M264.618 218.992c0 1.3 1.1 2.3 2.3 2.32c1.313 0 2.393-1.062 2.393-2.32 c0-1.313-1.079-2.394-2.393-2.394C265.697 216.6 264.6 217.7 264.6 218.992z" />
    </g>

    <!-- WordPress Logo -->
    <g>
      <path d="M276.514 110.08c1.346-10.474 2.451-18.016 1.367-24.155c-1.562-8.869-5.83-14.446-9.402-18.743 c-4.68-5.271-8.973-9.672-10.016-15.584c-1.162-6.594 2.756-13.614 9.805-14.857c0.316-0.056 0.625-0.071 0.938-0.105 c-14.824-9.444-33.09-13.587-51.768-10.294c-25.064 4.419-44.847 21.168-54.241 42.905c1.694-0.243 3.286-0.489 4.633-0.727 c7.502-1.323 18.959-4.284 18.959-4.284c3.826-0.907 5.3 4.7 1.5 5.832c0 0-3.809 1.14-8.091 2.13l39.826 73.1 l7.401-49.854l-16.577-28.655c-3.905 0.454-7.646 0.646-7.646 0.646c-3.907 0.453-4.497-5.537-0.587-5.993 c0 0 12.006-1.176 19.056-2.42c7.5-1.321 18.961-4.283 18.961-4.283c3.828-0.908 5.3 4.7 1.5 5.832c0 0-3.812 1.14-8.09 2.1 l39.525 72.548L276.514 110.08z" />
      <path d="M224.021 157.431c2.047-0.008 4.11-0.013 6.202-0.013c11.805 0 22.9 0.1 33.3 0.345l-31.027-53.627 L224.021 157.431z" />
      <path d="M158.345 110.732c3.518 19.9 14.8 36.5 30.3 47.23c4.964-0.132 10.112-0.244 15.447-0.332 l-44.66-77.191C157.001 90.1 156.5 100.3 158.3 110.732z" />
      <path d="M301.831 85.432c-2.199-12.474-7.455-23.638-14.855-32.869c0.709 2.2 1.3 4.7 1.8 7.3 c1.283 7.3 1.4 15.701-0.926 26.658l-10.742 67.219C296.227 137.5 306.5 111.9 301.8 85.432z" />
    </g>

    <!-- Gear -->
    <path d="M133.455 105.217c0.331 2.2 0.6 4.4 0.7 6.634c0.028 0.5 0.5 0.9 1 0.9 c1.933 0.2 3.9 0.3 5.8 0.461c0.448 2.7 1 5.3 1.7 7.846c-1.714 0.932-3.428 1.864-5.141 2.8 c-0.449 0.247-0.672 0.809-0.505 1.252c0.781 2.1 1.5 4.2 2.1 6.344c0.126 0.5 0.6 0.8 1.1 0.7 c1.945-0.254 3.891-0.509 5.837-0.764c0.985 2.5 2.1 4.9 3.3 7.279c-1.503 1.286-3.007 2.572-4.51 3.9 c-0.388 0.335-0.489 0.931-0.233 1.33c1.197 1.9 2.3 3.8 3.3 5.776c0.219 0.4 0.8 0.6 1.3 0.5 c1.878-0.663 3.757-1.327 5.636-1.99c1.469 2.2 3 4.3 4.7 6.401c-1.19 1.554-2.38 3.107-3.57 4.7 c6.24-0.316 12.96-0.609 20.14-0.863c-13.056-11.688-22.451-27.645-25.724-46.2c-7.758-43.999 21.728-86.105 65.727-93.864 s86.108 21.7 93.9 65.724c5.029 28.524-5.605 56.241-25.688 74.333c7.002 0.2 13.6 0.5 19.7 0.8 c-1.116-1.458-2.231-2.914-3.349-4.371c1.676-2.079 3.265-4.231 4.754-6.456c1.833 0.6 3.7 1.3 5.5 1.9 c0.486 0.2 1.053-0.042 1.271-0.462c1.023-1.973 2.139-3.901 3.334-5.776c0.254-0.399 0.15-0.996-0.232-1.326 c-1.458-1.249-2.918-2.497-4.378-3.746c1.216-2.393 2.327-4.849 3.33-7.359c1.893 0.2 3.8 0.5 5.7 0.7 c0.512 0.1 1.02-0.26 1.146-0.716c0.592-2.143 1.281-4.26 2.061-6.343c0.166-0.443-0.059-1.005-0.504-1.249 c-1.658-0.903-3.318-1.806-4.979-2.709c0.691-2.603 1.269-5.252 1.728-7.942c1.876-0.149 3.752-0.298 5.626-0.447 c0.514-0.043 0.943-0.467 0.973-0.939c0.133-2.219 0.367-4.433 0.697-6.633c0.068-0.468-0.268-0.971-0.754-1.117 c-1.785-0.531-3.571-1.062-5.357-1.592c0.076-1.523 0.115-3.057 0.115-4.599c0-1.197-0.03-2.388-0.076-3.574 c1.778-0.528 3.559-1.056 5.334-1.584c0.492-0.149 0.826-0.652 0.756-1.121c-0.33-2.198-0.562-4.412-0.697-6.633 c-0.029-0.472-0.463-0.894-0.969-0.936c-1.824-0.146-3.649-0.291-5.475-0.436c-0.433-2.73-0.986-5.42-1.658-8.064 c1.597-0.868 3.194-1.737 4.789-2.605c0.451-0.248 0.672-0.81 0.506-1.253c-0.781-2.08-1.467-4.198-2.061-6.343 c-0.127-0.455-0.641-0.778-1.143-0.713c-1.783 0.232-3.567 0.466-5.352 0.7c-0.999-2.586-2.113-5.114-3.336-7.579 c1.362-1.165 2.726-2.331 4.086-3.496c0.389-0.336 0.488-0.932 0.234-1.332c-1.195-1.872-2.309-3.801-3.336-5.775 c-0.217-0.419-0.787-0.628-1.264-0.46c-1.679 0.592-3.356 1.185-5.035 1.778c-1.52-2.323-3.141-4.573-4.861-6.742 c1.08-1.409 2.16-2.819 3.238-4.227c0.311-0.41 0.283-1.013-0.047-1.351c-1.561-1.583-3.049-3.238-4.465-4.956 c-0.301-0.364-0.9-0.45-1.332-0.187c-1.505 0.918-3.008 1.839-4.512 2.759c-1.972-1.961-4.032-3.833-6.178-5.606 c0.756-1.587 1.512-3.174 2.266-4.759c0.219-0.465 0.066-1.05-0.328-1.312c-1.854-1.225-3.654-2.533-5.396-3.92 c-0.369-0.293-0.973-0.252-1.342 0.095c-1.268 1.199-2.533 2.399-3.8 3.6c-2.34-1.511-4.756-2.914-7.237-4.208 c0.405-1.694 0.811-3.389 1.215-5.081c0.117-0.5-0.152-1.041-0.592-1.214c-2.068-0.812-4.102-1.718-6.094-2.713 c-0.422-0.209-1.004-0.044-1.293 0.372c-0.983 1.427-1.967 2.854-2.95 4.282c-2.603-0.986-5.262-1.856-7.973-2.603 c0.044-1.734 0.089-3.47 0.132-5.202c0.012-0.514-0.365-0.986-0.83-1.065c-2.193-0.365-4.371-0.828-6.525-1.387 c-0.455-0.117-0.992 0.166-1.188 0.633c-0.666 1.6-1.33 3.202-1.995 4.804c-2.739-0.415-5.521-0.703-8.334-0.866 c-0.319-1.714-0.639-3.429-0.958-5.143c-0.096-0.502-0.561-0.886-1.033-0.865c-2.223 0.099-4.449 0.099-6.674 0 c-0.472-0.021-0.935 0.364-1.031 0.865c-0.319 1.714-0.639 3.429-0.958 5.143c-2.81 0.164-5.586 0.45-8.32 0.9 c-0.67-1.613-1.34-3.226-2.01-4.839c-0.198-0.471-0.732-0.751-1.191-0.631c-2.153 0.559-4.331 1.022-6.526 1.4 c-0.467 0.077-0.839 0.55-0.83 1.061c0.045 1.7 0.1 3.5 0.1 5.243c-2.699 0.743-5.347 1.609-7.939 2.6 c-0.997-1.448-1.994-2.896-2.991-4.344c-0.292-0.419-0.873-0.583-1.297-0.37c-1.99 0.995-4.023 1.9-6.095 2.7 c-0.44 0.172-0.707 0.712-0.592 1.21c0.411 1.7 0.8 3.4 1.2 5.154c-2.466 1.285-4.865 2.678-7.19 4.2 c-1.293-1.225-2.586-2.45-3.879-3.674c-0.373-0.35-0.976-0.389-1.346-0.092c-1.74 1.386-3.541 2.695-5.397 3.9 c-0.395 0.26-0.543 0.844-0.327 1.307c0.771 1.6 1.5 3.2 2.3 4.856c-2.127 1.758-4.17 3.613-6.127 5.6 c-1.543-0.944-3.086-1.888-4.629-2.832c-0.438-0.265-1.035-0.178-1.336 0.189c-1.414 1.718-2.903 3.372-4.464 5 c-0.332 0.336-0.355 0.939-0.049 1.347c1.106 1.4 2.2 2.9 3.3 4.334c-1.703 2.146-3.31 4.371-4.815 6.7 c-1.729-0.611-3.459-1.222-5.188-1.833c-0.483-0.167-1.05 0.042-1.268 0.463c-1.025 1.974-2.139 3.902-3.335 5.8 c-0.255 0.398-0.152 1 0.2 1.328c1.401 1.2 2.8 2.4 4.2 3.597c-1.211 2.436-2.316 4.932-3.308 7.5 c-1.843-0.241-3.687-0.483-5.529-0.724c-0.507-0.064-1.018 0.259-1.144 0.716c-0.592 2.145-1.28 4.261-2.061 6.3 c-0.167 0.4 0.1 1 0.5 1.25c1.646 0.9 3.3 1.8 4.9 2.686c-0.666 2.609-1.215 5.265-1.647 8 c-1.889 0.15-3.777 0.3-5.665 0.45c-0.51 0.043-0.942 0.465-0.97 0.938c-0.134 2.221-0.367 4.435-0.697 6.6 c-0.07 0.5 0.3 1 0.8 1.119c1.834 0.5 3.7 1.1 5.5 1.635c-0.05 1.228-0.082 2.46-0.082 3.7 c0 1.5 0 2.9 0.1 4.366c-1.849 0.549-3.697 1.098-5.545 1.646C133.718 104.2 133.4 104.7 133.5 105.217z" />

    <!-- Banner -->
    <g>
      <polygon points="100.9,211.3 98.4,182.7 75.3,184.4 91.4,200.9 76.9,218.8 122.1,215.2 100.9,211.3" />
      <polygon points="337.9,215.2 383.1,218.8 368.6,200.9 384.7,184.4 361.6,182.7 359.2,211.3 359.1,211.3 359.1,211.3" />
      <path d="M123.115 208.912l12.673 2.494l-0.054-1.172l-8.502-1.673C125.796 208.7 124.4 208.8 123.1 208.9 z" />
      <path d="M119.563 209.232c-1.315 0.123-2.559 0.242-3.719 0.357l19.031 3.748l1.01 0.199l-0.051-1.102 L119.563 209.232z" />
      <path d="M134.63 207.982c-1.282 0.096-2.512 0.189-3.718 0.283l4.774 0.939l-0.06-1.297 C135.291 207.9 135 208 134.6 207.982z" />
      <path d="M324.212 211.406l12.674-2.494c-1.311-0.115-2.682-0.232-4.117-0.351l-8.502 1.673L324.212 211.406z" />
      <path d="M340.437 209.232l-16.271 3.203l-0.051 1.102l1.01-0.199l19.031-3.748 C342.995 209.5 341.8 209.4 340.4 209.232z" />
      <path d="M324.374 207.908l-0.061 1.297l4.775-0.939c-1.207-0.094-2.436-0.188-3.719-0.283 C325.04 208 324.7 207.9 324.4 207.908z" />
      <path d="M267.874 184.278c0.37 0 0.7 0 1.1 0.026c0.414 0 0.8 0 1.2 0 c0.291 0 0.418-0.112 0.38-0.358c-0.23-1.544-0.463-3.089-0.695-4.633c-0.101-0.582-0.188-1.152-0.263-1.712 c-0.078-0.559-0.15-1.062-0.219-1.511c-0.068-0.446-0.121-0.811-0.16-1.091c-0.038-0.279-0.057-0.43-0.056-0.452 c-0.022-0.001-0.045-0.001-0.067-0.002c-0.001 0.022-0.04 0.25-0.119 0.683c-0.078 0.434-0.182 0.982-0.31 1.6 c-0.129 0.666-0.27 1.393-0.423 2.181c-0.152 0.788-0.3 1.526-0.439 2.214c-0.141 0.688-0.254 1.276-0.344 1.8 s-0.136 0.767-0.137 0.833c-0.025 0.156-0.013 0.3 0 0.303C267.475 184.2 267.6 184.3 267.9 184.278z" />
      <path d="M218.516 190.371c0.614-0.005 1.229-0.009 1.844-0.013c0.357-0.002 0.642-0.064 0.854-0.188 c0.212-0.123 0.373-0.28 0.483-0.47c0.111-0.19 0.183-0.413 0.215-0.671c0.032-0.256 0.048-0.519 0.047-0.786 c-0.024-4.792-0.049-9.584-0.073-14.377c-0.002-0.289-0.02-0.562-0.055-0.818s-0.11-0.479-0.224-0.667 c-0.114-0.189-0.278-0.339-0.494-0.448c-0.216-0.11-0.504-0.166-0.865-0.163c-0.622 0.003-1.243 0.008-1.865 0 c-0.158 0.001-0.276 0.053-0.354 0.153c-0.079 0.101-0.117 0.219-0.116 0.353c0.044 5.9 0.1 11.7 0.1 17.6 C218.045 190.2 218.2 190.4 218.5 190.371z" />
      <path d="M192.971 179.584c0.08 0.1 0.2 0.1 0.3 0.095c0.573-0.013 1.147-0.025 1.721-0.038 c0.697-0.015 1.148-0.209 1.355-0.58c0.206-0.373 0.303-0.893 0.289-1.562c-0.023-1.104-0.046-2.206-0.068-3.31 c-0.014-0.69-0.223-1.21-0.625-1.559c-0.403-0.349-0.888-0.517-1.452-0.505c-0.451 0.01-0.903 0.021-1.355 0 c-0.271 0.006-0.403 0.165-0.396 0.478c0.05 2.2 0.1 4.4 0.1 6.585C192.849 179.4 192.9 179.5 193 179.584z" />
      <path d="M168.837 191.252c0.414 0.3 0.9 0.4 1.5 0.411c0.625-0.022 1.133-0.213 1.523-0.574 c0.389-0.359 0.568-0.984 0.537-1.876c-0.173-4.855-0.345-9.712-0.518-14.568c-0.03-0.869-0.255-1.446-0.672-1.732 s-0.943-0.417-1.575-0.395c-0.61 0.022-1.113 0.192-1.509 0.508c-0.395 0.316-0.576 0.908-0.543 1.8 c0.187 4.9 0.4 9.8 0.6 14.7C168.201 190.4 168.4 191 168.8 191.252z" />
      <path d="M325.593 183.118c0.472 0 0.9 0.1 1.4 0.083c0.697 0 1.205-0.161 1.524-0.612 c0.321-0.449 0.505-1.063 0.552-1.842c0.069-1.146 0.139-2.291 0.208-3.438c0.047-0.778-0.062-1.41-0.328-1.896 c-0.264-0.485-0.747-0.749-1.447-0.79c-0.439-0.026-0.879-0.052-1.319-0.078c-0.203-0.012-0.35 0.041-0.434 0.2 c-0.086 0.117-0.134 0.242-0.142 0.376c-0.146 2.515-0.292 5.029-0.438 7.544C325.166 182.9 325.3 183.1 325.6 183.118z" />
      <path d="M104.511 206.756l0.004 0.046c9.721-1.21 52.9-6.01 125.507-6.01c72.607 0 115.8 4.8 125.5 6 l0.003-0.039l1.881-22.681l1.38-16.649c-5.936-0.695-25.688-2.817-57.087-4.344c-6.889-0.335-14.324-0.642-22.313-0.897 c-4.556-0.146-9.304-0.274-14.205-0.384c-10.898-0.243-22.622-0.39-35.166-0.39c-2.306 0-4.584 0.005-6.836 0 c-5.868 0.024-11.531 0.083-17.023 0.165c-3.947 0.059-7.795 0.131-11.544 0.215c-4.902 0.111-9.654 0.239-14.209 0.4 c-4.797 0.154-9.378 0.329-13.78 0.515c-0.036 0.002-0.073 0.003-0.11 0.005c-2.958 0.125-5.826 0.256-8.602 0.4 c-31.153 1.525-50.758 3.631-56.667 4.323l1.381 16.648L104.511 206.756z M319.423 194.523c0.021-0.378 0.126-0.685 0.32-0.921 c0.19-0.234 0.38-0.414 0.566-0.537c0.092-0.062 0.168-0.125 0.229-0.188c0.059-0.063 0.104-0.173 0.136-0.327 c0.336-6.021 0.672-12.04 1.007-18.061c0.01-0.178-0.001-0.295-0.031-0.354c-0.03-0.057-0.092-0.11-0.178-0.16 c-0.218-0.146-0.378-0.35-0.477-0.612c-0.099-0.262-0.134-0.627-0.108-1.095c0.023-0.423 0.047-0.846 0.07-1.269 c2.736 0.1 5.5 0.3 8.2 0.474c0.836 0.1 1.5 0.3 2.1 0.68c0.555 0.4 1 0.9 1.3 1.5 c0.304 0.6 0.5 1.2 0.6 1.814c0.107 0.6 0.1 1.2 0.1 1.749c-0.09 1.424-0.18 2.848-0.269 4.3 c-0.105 1.669-0.648 2.942-1.626 3.818c-0.978 0.878-2.43 1.257-4.355 1.143c-0.527-0.031-1.054-0.062-1.581-0.094 c-0.314-0.018-0.478 0.118-0.494 0.407c-0.114 1.958-0.229 3.916-0.342 5.875c-0.014 0.2 0 0.4 0.1 0.5 s0.135 0.2 0.2 0.247c0.17 0.1 0.3 0.3 0.5 0.599c0.163 0.3 0.2 0.6 0.2 1 c-0.028 0.479-0.057 0.957-0.085 1.435c-2.061-0.121-4.121-0.238-6.182-0.352C319.372 195.5 319.4 195 319.4 194.523z M287.133 193.068c0.013-0.379 0.114-0.688 0.301-0.927c0.188-0.239 0.373-0.422 0.557-0.549c0.093-0.063 0.168-0.139 0.226-0.227 c0.06-0.087 0.104-0.219 0.132-0.396c0.216-6.048 0.433-12.096 0.649-18.144c-0.225-0.053-0.412-0.16-0.565-0.322 c-0.154-0.117-0.283-0.299-0.387-0.548c-0.104-0.249-0.151-0.563-0.138-0.941c0.018-0.502 0.035-1.003 0.053-1.505 c1.539 0.1 3.1 0.1 4.6 0.169c0.317 0 0.6 0.2 0.7 0.529c1.639 3.9 3.3 7.9 4.9 11.8 c1.901-3.803 3.816-7.603 5.743-11.398c0.1-0.196 0.274-0.323 0.527-0.378c0.251-0.056 0.469-0.08 0.649-0.071 c1.437 0.1 2.9 0.1 4.3 0.201c-0.024 0.502-0.048 1.003-0.072 1.504c-0.019 0.378-0.095 0.688-0.231 0.9 c-0.137 0.239-0.273 0.41-0.415 0.516c-0.188 0.147-0.385 0.238-0.591 0.273c-0.285 6.022-0.571 12.045-0.856 18.1 c-0.011 0.2 0 0.4 0.1 0.473c0.062 0.1 0.1 0.2 0.2 0.245c0.174 0.1 0.3 0.3 0.5 0.6 c0.166 0.3 0.2 0.6 0.2 0.949c-0.022 0.479-0.046 0.957-0.068 1.436c-2.062-0.1-4.123-0.194-6.186-0.286 c0.021-0.479 0.043-0.957 0.064-1.436c0.017-0.379 0.12-0.687 0.309-0.924c0.189-0.237 0.378-0.419 0.562-0.544 c0.114-0.062 0.202-0.136 0.261-0.224c0.062-0.086 0.096-0.239 0.105-0.463c0.189-4.197 0.378-8.395 0.567-12.592 c0.001-0.022-0.005-0.045-0.013-0.068c-0.012-0.021-0.04 0.011-0.09 0.097c-0.766 1.461-1.455 2.78-2.068 4 c-0.269 0.502-0.533 0.998-0.79 1.488c-0.258 0.491-0.49 0.938-0.698 1.342c-0.208 0.404-0.386 0.748-0.531 1 c-0.148 0.283-0.234 0.458-0.259 0.523c-0.073 0.153-0.259 0.263-0.553 0.328c-0.294 0.066-0.604 0.092-0.929 0.1 c-0.323-0.013-0.63-0.06-0.92-0.139c-0.288-0.079-0.462-0.196-0.521-0.355c-0.043-0.069-0.12-0.244-0.232-0.528 c-0.112-0.283-0.26-0.629-0.446-1.038c-0.186-0.409-0.386-0.864-0.603-1.363s-0.427-1.009-0.631-1.531 c-0.514-1.201-1.082-2.54-1.7-4.014c-0.022-0.045-0.049-0.068-0.083-0.07c-0.033-0.001-0.053 0.054-0.058 0.2 c-0.155 4.065-0.311 8.13-0.466 12.195c-0.009 0.2 0 0.4 0.1 0.472c0.063 0.1 0.1 0.2 0.2 0.3 c0.175 0.1 0.3 0.3 0.5 0.588c0.171 0.3 0.2 0.6 0.2 0.946c-0.019 0.479-0.038 0.958-0.057 1.4 c-2.062-0.08-4.124-0.156-6.187-0.229C287.1 194 287.1 193.5 287.1 193.068z M260.952 192.5 c0.007-0.334 0.066-0.595 0.184-0.782c0.115-0.188 0.241-0.347 0.377-0.478s0.279-0.262 0.427-0.393s0.257-0.297 0.329-0.495 c0.684-2.93 1.37-5.859 2.061-8.787c0.247-1.087 0.501-2.157 0.76-3.212c0.26-1.052 0.487-1.996 0.688-2.827 c0.197-0.832 0.359-1.509 0.483-2.029s0.188-0.793 0.188-0.815c0.001-0.056 0.002-0.111 0.003-0.167 c0.004-0.179-0.044-0.324-0.143-0.438s-0.211-0.244-0.33-0.393c-0.122-0.146-0.23-0.334-0.327-0.559 c-0.099-0.225-0.141-0.56-0.131-1.006c0.009-0.401 0.017-0.803 0.025-1.204c1.199 0 2.2 0 2.9 0 c0.76 0 1.4 0.1 1.8 0.161c0.45 0.1 0.8 0.3 1 0.476c0.21 0.2 0.4 0.5 0.5 1 c0.021 0.1 0.1 0.4 0.2 1.059c0.107 0.6 0.3 1.4 0.4 2.353c0.18 1 0.4 2 0.6 3.2 c0.218 1.2 0.4 2.4 0.6 3.646c0.51 2.9 1.1 6.2 1.8 9.814c0.04 0.2 0.1 0.3 0.2 0.4 c0.086 0.1 0.2 0.2 0.3 0.293c0.175 0.1 0.3 0.3 0.5 0.55c0.161 0.2 0.2 0.6 0.2 0.9 c-0.014 0.445-0.025 0.892-0.039 1.337c-2.062-0.059-4.125-0.114-6.188-0.165c0.01-0.401 0.02-0.803 0.029-1.204 c0.01-0.378 0.055-0.666 0.138-0.865c0.083-0.198 0.178-0.357 0.28-0.478c0.104-0.12 0.202-0.24 0.295-0.361 c0.091-0.12 0.141-0.28 0.146-0.48c-0.097-0.605-0.163-1.108-0.195-1.511c-0.035-0.402-0.072-0.721-0.111-0.956 c-0.04-0.234-0.096-0.404-0.172-0.506c-0.076-0.103-0.193-0.154-0.35-0.159c-0.09-0.002-0.18-0.004-0.269-0.006 c-0.94-0.023-1.881-0.046-2.821-0.067c-0.2-0.004-0.349 0.015-0.438 0.057c-0.091 0.043-0.151 0.164-0.177 0.4 c-0.023 0.111-0.046 0.312-0.064 0.601c-0.017 0.29-0.053 0.59-0.103 0.9c-0.053 0.356-0.106 0.744-0.161 1.2 c-0.006 0.2 0 0.4 0.1 0.555c0.075 0.1 0.1 0.3 0.2 0.389s0.15 0.3 0.2 0.5 c0.074 0.2 0.1 0.4 0.1 0.805c-0.009 0.401-0.018 0.803-0.027 1.204c-2.029-0.047-4.059-0.089-6.089-0.127 C260.935 193.4 260.9 192.9 261 192.459z M238.344 173.565c0.004-0.847 0.171-1.604 0.503-2.271 c0.33-0.668 0.775-1.228 1.334-1.682c0.556-0.453 1.209-0.8 1.959-1.039c0.75-0.24 1.543-0.356 2.38-0.35 c0.838 0 1.6 0.1 2.4 0.391c0.734 0.3 1.4 0.6 1.9 1.073c0.549 0.5 1 1 1.3 1.7 s0.457 1.4 0.4 2.278c-0.012 0.947-0.023 1.895-0.035 2.842c-0.677-0.008-1.354-0.017-2.03-0.023 c-0.563-0.007-1.041-0.184-1.431-0.533c-0.392-0.35-0.585-0.792-0.58-1.327c0.005-0.424 0.009-0.847 0.013-1.271 c0.004-0.423-0.189-0.843-0.579-1.26c-0.393-0.416-0.894-0.626-1.504-0.632c-0.634-0.006-1.139 0.196-1.515 0.6 c-0.375 0.41-0.564 0.827-0.567 1.25c-0.038 5.204-0.077 10.409-0.115 15.614c-0.003 0.4 0.2 0.7 0.6 1.1 c0.398 0.4 0.9 0.6 1.5 0.581c0.313 0 0.6-0.05 0.856-0.159c0.258-0.109 0.482-0.251 0.674-0.428 c0.192-0.178 0.339-0.365 0.442-0.564c0.103-0.2 0.155-0.399 0.157-0.6c0.005-0.446 0.009-0.893 0.014-1.338 c0.005-0.513 0.16-0.957 0.467-1.334c0.306-0.374 0.75-0.561 1.333-0.554c0.707 0 1.4 0 2.1 0 c-0.012 0.948-0.023 1.896-0.035 2.843c-0.011 0.847-0.177 1.603-0.498 2.268s-0.758 1.223-1.31 1.7 c-0.553 0.45-1.191 0.794-1.919 1.032c-0.728 0.237-1.505 0.354-2.329 0.346c-0.825-0.007-1.604-0.137-2.338-0.387 c-0.735-0.251-1.374-0.605-1.917-1.065c-0.545-0.46-0.979-1.025-1.298-1.696c-0.321-0.67-0.478-1.429-0.474-2.275 C238.295 183.5 238.3 178.5 238.3 173.565z M220.228 168.526c1.947-0.012 3.4 0.5 4.3 1.5 c0.887 1 1.3 2.3 1.3 3.941c0.012 4.7 0 9.5 0 14.177c0.004 1.649-0.429 2.965-1.296 3.9 c-0.867 0.983-2.259 1.479-4.177 1.49c-2.465 0.015-4.929 0.035-7.394 0.062c-0.005-0.445-0.01-0.892-0.015-1.338 c-0.005-0.489 0.058-0.863 0.189-1.121s0.309-0.443 0.531-0.557c0.267-0.114 0.398-0.351 0.395-0.707 c-0.058-5.851-0.115-11.701-0.174-17.553c-0.003-0.356-0.152-0.611-0.448-0.765c-0.477-0.239-0.72-0.749-0.729-1.529 c-0.005-0.479-0.01-0.959-0.015-1.438C215.222 168.6 217.7 168.5 220.2 168.526z M194.716 168.9 c0.838-0.019 1.6 0.1 2.3 0.37s1.292 0.6 1.8 1.118c0.495 0.5 0.9 1.1 1.2 1.7 c0.271 0.7 0.4 1.4 0.4 2.25c0.019 1 0 2 0.1 3.075c0.013 0.714-0.076 1.367-0.269 2 c-0.191 0.595-0.509 1.085-0.951 1.473c-0.266 0.228-0.25 0.5 0 0.668c0.523 0.4 0.9 0.9 1 1.6 c0.169 0.7 0.3 1.4 0.3 2.236c0.027 1.5 0.1 3.1 0.1 4.579c0.004 0.2 0 0.4 0.1 0.5 c0.08 0.1 0.2 0.2 0.3 0.244c0.181 0.1 0.3 0.3 0.5 0.478c0.138 0.2 0.2 0.5 0.2 0.9 c0.011 0.6 0 1.2 0 1.806c-1.082 0.019-2.163 0.039-3.245 0.06c-0.58 0.012-1.019-0.157-1.315-0.509 c-0.298-0.351-0.451-0.771-0.461-1.262c-0.051-2.474-0.102-4.947-0.152-7.421c-0.014-0.646-0.153-1.122-0.417-1.43 c-0.265-0.306-0.746-0.452-1.441-0.437c-0.472 0.01-0.943 0.021-1.414 0.031c-0.292 0.006-0.435 0.166-0.428 0.5 c0.054 2.3 0.1 4.7 0.2 7.02c0.006 0.2 0 0.4 0.1 0.466s0.144 0.2 0.3 0.2 c0.182 0.1 0.4 0.3 0.5 0.556c0.184 0.2 0.3 0.6 0.3 0.931c0.011 0.5 0 1 0 1.4 c-2.063 0.045-4.126 0.095-6.188 0.148c-0.013-0.479-0.024-0.958-0.037-1.438c-0.01-0.379 0.07-0.692 0.244-0.943 c0.172-0.249 0.346-0.443 0.521-0.581c0.088-0.069 0.165-0.149 0.229-0.24s0.094-0.236 0.089-0.438 c-0.148-5.905-0.298-11.81-0.446-17.715c-0.005-0.178-0.008-0.322-0.011-0.435c-0.003-0.111-0.062-0.187-0.176-0.229 c-0.184-0.107-0.386-0.281-0.606-0.521c-0.222-0.239-0.338-0.582-0.35-1.027c-0.012-0.479-0.024-0.959-0.037-1.438 C189.938 169 192.3 168.9 194.7 168.877z M164.032 172.317c0.302-0.648 0.723-1.189 1.261-1.623s1.171-0.771 1.898-1.011 s1.51-0.375 2.349-0.406c0.837-0.03 1.6 0 2.4 0.231c0.755 0.2 1.4 0.5 2 0.9 c0.568 0.4 1 0.9 1.4 1.526c0.349 0.6 0.5 1.4 0.6 2.206c0.171 5.2 0.3 10.3 0.5 15.5 c0.028 0.847-0.11 1.593-0.412 2.238c-0.304 0.646-0.721 1.19-1.253 1.631c-0.532 0.443-1.162 0.776-1.891 1 s-1.506 0.354-2.33 0.386c-0.824 0.03-1.603-0.041-2.335-0.214s-1.38-0.459-1.942-0.861c-0.563-0.401-1.021-0.913-1.369-1.535 c-0.35-0.622-0.541-1.354-0.576-2.202c-0.209-5.167-0.418-10.334-0.628-15.501C163.596 173.7 163.7 173 164 172.317z M132.96 171.366c0.028 0.5 0.1 1 0.1 1.437c0.023 0.399-0.037 0.728-0.18 0.98c-0.144 0.255-0.303 0.442-0.477 0.6 c-0.196 0.124-0.284 0.363-0.263 0.719c0.97 5.8 1.9 11.6 2.9 17.414c0.436-3.665 0.84-6.959 1.213-9.884 c0.153-1.236 0.304-2.462 0.449-3.677c0.146-1.213 0.276-2.304 0.391-3.271c0.114-0.966 0.211-1.764 0.289-2.394 c0.077-0.629 0.125-0.989 0.144-1.079c0.025-0.336 0.231-0.605 0.617-0.806s0.862-0.315 1.428-0.347 c0.226-0.012 0.47-0.021 0.73-0.023s0.507 0 0.7 0.076c0.229 0.1 0.4 0.2 0.6 0.287s0.29 0.3 0.4 0.6 c0.028 0.1 0.1 0.5 0.3 1.092c0.146 0.6 0.3 1.4 0.6 2.346c0.241 0.9 0.5 2 0.8 3.2 c0.288 1.2 0.6 2.4 0.9 3.586c0.712 2.8 1.5 6.1 2.4 9.652c0.236-5.871 0.479-11.742 0.728-17.613 c-0.018-0.356-0.132-0.584-0.34-0.686c-0.188-0.103-0.366-0.271-0.536-0.509c-0.171-0.236-0.266-0.556-0.286-0.956 c-0.024-0.479-0.049-0.957-0.073-1.437c2.082-0.105 4.163-0.208 6.245-0.306c0.022 0.5 0 1 0.1 1.4 c0.018 0.379-0.053 0.694-0.211 0.946c-0.157 0.254-0.324 0.451-0.498 0.593c-0.11 0.073-0.202 0.166-0.275 0.3 c-0.074 0.116-0.129 0.264-0.165 0.443c-0.287 6.786-0.565 13.572-0.837 20.358c-0.054 0.718-0.438 1.094-1.15 1.1 c-1.604 0.08-3.209 0.162-4.813 0.246c-0.223 0.012-0.399-0.045-0.528-0.172c-0.13-0.127-0.249-0.367-0.356-0.719 c-1.209-4.869-2.427-9.736-3.653-14.603c-0.63 4.969-1.251 9.937-1.864 14.905c-0.045 0.384-0.126 0.64-0.242 0.8 c-0.115 0.128-0.284 0.2-0.507 0.213c-1.471 0.084-2.94 0.17-4.411 0.258c-0.355 0.021-0.682-0.087-0.975-0.327 c-0.294-0.238-0.477-0.567-0.547-0.988c-1.15-6.596-2.31-13.19-3.479-19.784c-0.057-0.175-0.127-0.315-0.213-0.423 c-0.087-0.106-0.188-0.188-0.305-0.249c-0.189-0.122-0.376-0.299-0.561-0.534c-0.185-0.234-0.289-0.539-0.312-0.918 c-0.03-0.479-0.061-0.957-0.091-1.436C128.799 171.6 130.9 171.5 133 171.366z" />
    </g>

  </g>
</svg>
