<svg xmlns="http://www.w3.org/2000/svg" xmlns:xlink="http://www.w3.org/1999/xlink" version="1.1" x="0px"
  y="0px" width="50px" height="50px" viewBox="0 0 50 50" enable-background="new 0 0 50 50" xml:space="preserve">
  <g fill="#1d6377"> <!-- the official WordPress blue is really #21759b, but I'm going with the wcsf blue here -->
    <g>
      <path d="M4.453 24.999c0 8.1 4.7 15.2 11.6 18.492L6.233 16.637C5.092 19.2 4.5 22 4.5 24.999z" />
      <path d="M38.872 23.963c0-2.539-0.913-4.298-1.695-5.667c-1.042-1.691-2.017-3.126-2.017-4.816 c0-1.891 1.431-3.647 3.449-3.647c0.092 0 0.2 0 0.3 0.018c-3.657-3.352-8.526-5.395-13.875-5.395 c-7.179 0-13.494 3.683-17.168 9.26c0.483 0 0.9 0 1.3 0.025c2.149 0 5.476-0.434 5.476-0.434 c1.108-0.064 1.2 1.7 0.1 1.864c0 0-1.113 0.132-2.351 0.196l7.482 22.255l4.497-13.484l-3.202-8.771 c-1.106-0.064-2.155-0.196-2.155-0.196c-1.107-0.064-0.979-1.93 0.13-1.864c0 0 3.4 0.4 5.4 0.4 c2.148 0 5.476-0.434 5.476-0.434c1.108-0.064 1.2 1.7 0.1 1.864c0 0-1.115 0.132-2.352 0.196l7.426 22.087l2.051-6.849 C38.193 27.8 38.9 25.7 38.9 23.963z" />
      <path d="M25.36 26.797l-6.167 17.914c1.841 0.5 3.8 0.8 5.8 0.837c2.394 0 4.688-0.413 6.823-1.165 c-0.055-0.089-0.105-0.181-0.147-0.283L25.36 26.797z" />
      <path d="M43.029 15.143c0.089 0.7 0.1 1.4 0.1 2.112c0 2.085-0.389 4.429-1.562 7.359L35.33 42.8 c6.109-3.562 10.217-10.18 10.217-17.761C45.546 21.4 44.6 18.1 43 15.143z" />
      <path d="M25 0C11.214 0 0 11.2 0 24.999C0 38.8 11.2 50 25 50c13.784 0 25-11.215 25-25.001 C50 11.2 38.8 0 25 0z M25 47.854C12.398 47.9 2.1 37.6 2.1 25C2.146 12.4 12.4 2.1 25 2.1 c12.602 0 22.9 10.3 22.9 22.854C47.854 37.6 37.6 47.9 25 47.854z" />
    </g>
  </g>
</svg>
